<svg width="56" height="56" viewBox="0 0 56 56" fill="none" xmlns="http://www.w3.org/2000/svg">
<rect width="56" height="56" rx="10" fill="white"/>
<path d="M11 29.25H43.5M27.25 29.25V44.25M33.5 35.5V38M21 35.5V38M14.75 29.25V41.75C14.75 42.413 15.0134 43.0489 15.4822 43.5178C15.9511 43.9866 16.587 44.25 17.25 44.25H37.25C37.913 44.25 38.5489 43.9866 39.0178 43.5178C39.4866 43.0489 39.75 42.413 39.75 41.75V29.25V24.25C39.75 20.9348 38.433 17.7554 36.0888 15.4112C33.7446 13.067 30.5652 11.75 27.25 11.75C23.9348 11.75 20.7554 13.067 18.4112 15.4112C16.067 17.7554 14.75 20.9348 14.75 24.25V29.25Z" stroke="#57B7C0" stroke-width="3" stroke-linecap="round" stroke-linejoin="round"/>
</svg>
