<svg width="34" height="34" viewBox="0 0 34 34" fill="none" xmlns="http://www.w3.org/2000/svg">
<path d="M17.5 33H2V3.47619C2 3.47619 4.95238 2 9.75 2C14.5476 2 17.5 3.47619 17.5 3.47619V33ZM17.5 33V18.2381H17.869C17.869 18.2381 20.4524 19.7143 25.25 19.7143C30.0476 19.7143 32.631 18.2381 32.631 18.2381H33V33H17.5ZM2 13.8095C2 13.8095 4.95238 12.3333 9.75 12.3333C14.5476 12.3333 17.5 13.8095 17.5 13.8095M5.69048 6.42857V9.38095M5.69048 16.0238V18.9762M27.0952 19.639V14.1786C27.0952 13.6892 26.9008 13.2198 26.5548 12.8738C26.2087 12.5277 25.7394 12.3333 25.25 12.3333C24.7606 12.3333 24.2913 12.5277 23.9452 12.8738C23.5992 13.2198 23.4048 13.6892 23.4048 14.1786V14.5476" stroke="#57B7C0" stroke-width="2"/>
</svg>
